<svg width="96" height="96" viewBox="0 0 96 96" fill="none" xmlns="http://www.w3.org/2000/svg">
<rect width="96" height="96" rx="24" fill="#1E1E1E"/>
<path d="M46.6933 48.0224L46.6799 47.2545C46.6628 46.2733 46.7523 45.2903 46.9485 44.3054C47.1447 43.3205 47.5126 42.3966 48.0523 41.5337C48.6354 40.7127 49.4131 40.0377 50.3853 39.5086C51.4002 38.9789 52.6756 38.7006 54.2113 38.6737L64.8337 38.4883C66.3695 38.4615 67.6324 38.6955 68.6225 39.1903C69.6553 39.6844 70.4561 40.3318 71.0248 41.1327C71.6369 41.9755 72.0582 42.8856 72.2887 43.863C72.5191 44.8405 72.6429 45.8198 72.66 46.801L72.6734 47.5689L46.6933 48.0224ZM32.1909 38.61C33.5133 38.587 34.5843 38.8243 35.4038 39.3221C36.2659 39.8191 36.938 40.4261 37.4199 41.1432C37.9018 41.8602 38.2138 42.6229 38.356 43.4312C38.5407 44.2388 38.6383 44.9412 38.6488 45.5384C38.6577 46.0503 38.6225 46.4777 38.5431 46.8204L35.3436 46.8763C33.7652 46.9038 32.9868 47.5362 33.0084 48.7733C33.0151 49.1573 33.0846 49.4761 33.2171 49.7298C33.3495 49.9836 33.5464 50.2575 33.8075 50.5517C33.4685 50.6856 33.043 50.757 32.5311 50.766C32.0199 50.8176 31.615 50.846 31.3164 50.8512C30.8045 50.8601 30.2484 50.7845 29.6482 50.6243C29.0479 50.464 28.4881 50.1751 27.9688 49.7574C27.4928 49.3817 27.0779 48.8342 26.7239 48.1149C26.37 47.3956 26.1833 46.4814 26.164 45.3723C26.1439 44.2204 26.3183 43.2146 26.6874 42.3547C27.0572 41.5374 27.5145 40.8467 28.0594 40.2824C28.6477 39.7601 29.3019 39.3432 30.0219 39.032C30.7427 38.7633 31.4656 38.6227 32.1909 38.61ZM52.1951 51.5109L52.2085 52.2788C52.2249 53.2173 52.135 54.179 51.9388 55.1639C51.7434 56.1915 51.3541 57.1158 50.771 57.9367C50.2313 58.7996 49.454 59.4959 48.4391 60.0257C47.4669 60.5548 46.2128 60.8327 44.6771 60.8595L34.0547 61.0449C32.5189 61.0717 31.2347 60.8381 30.2019 60.3441C29.2118 59.8493 28.4106 59.1805 27.7985 58.3377C27.2298 57.5368 26.8298 56.6264 26.5986 55.6062C26.3682 54.6288 26.2448 53.6708 26.2284 52.7323L26.215 51.9644L52.1951 51.5109ZM66.7593 60.7941C65.3942 60.818 64.3019 60.581 63.4824 60.0832C62.6629 59.5854 62.0122 58.978 61.5303 58.261C61.0484 57.544 60.715 56.7817 60.5302 55.9741C60.3881 55.1658 60.3118 54.463 60.3014 53.8658C60.2925 53.3539 60.3277 52.9265 60.407 52.5837L63.6066 52.5279C65.185 52.5003 65.9634 51.868 65.9418 50.6308C65.9351 50.2469 65.8655 49.9281 65.7331 49.6743C65.6006 49.4206 65.4038 49.1467 65.1426 48.8525C65.4817 48.7186 65.9068 48.6258 66.418 48.5742C66.9299 48.5653 67.3352 48.5582 67.6338 48.553C68.1457 48.5441 68.7018 48.6197 69.302 48.7799C69.9022 48.9401 70.4403 49.2081 70.9163 49.5839C71.4357 50.0015 71.8723 50.57 72.2263 51.2893C72.5802 52.0085 72.7668 52.9227 72.7862 54.0319C72.8063 55.1837 72.6315 56.1683 72.2617 56.9855C71.8926 57.8454 71.4139 58.5365 70.8256 59.0589C70.2807 59.6232 69.6266 60.04 68.8632 60.3093C68.1432 60.6206 67.4419 60.7822 66.7593 60.7941Z" fill="white"/>
</svg>
